# xmcd CD database file
#
# Track frame offsets:
#	150
#	24032
#	38926
#	56965
#	75473
#	94482
#	112960
#	131133
#	150782
#	172488
#
# Disc length: 2551 seconds
#
# Revision: 2
# Processed by: cddbd v1.5.2PL0 Copyright (c) Steve Scherf et al.
# Submitted via: CDex 1.51
#
DISCID=7c09f50a
DTITLE=Hamadregot - המדרגות - MaAyan Chaim - מעיין חיים
DYEAR=2003
DGENRE=New Age
TTITLE0=MaAyan Chaim - מעיין חיים
TTITLE1=Hayinu Smechim - היינו שמחים
TTITLE2=Habal Shem Tov - הבעש"ט
TTITLE3=Tzel Cholef - צל חולף
TTITLE4=BeMikre - במקרה
TTITLE5=Mavoch - מבוך
TTITLE6=Chaval - חבל
TTITLE7=Matai - מתי
TTITLE8=TzamA Nafshi - צמאה נפשי
TTITLE9=UreE EneCha - וראה עיניך
EXTD=YEAR: 2003
EXTT0=
EXTT1=
EXTT2=
EXTT3=
EXTT4=
EXTT5=
EXTT6=
EXTT7=
EXTT8=
EXTT9=
PLAYORDER=
